<?xml version="1.0" encoding="UTF-8"?>
<svg width="960px" height="1711px" viewBox="0 0 960 1711" version="1.1" xmlns="http://www.w3.org/2000/svg" xmlns:xlink="http://www.w3.org/1999/xlink">
    <!-- Generator: Sketch 46.2 (44496) - http://www.bohemiancoding.com/sketch -->
    <title>SVG Mask</title>
    <desc>Created with Sketch.</desc>
    <defs></defs>
    <g id="Articleimages" stroke="none" stroke-width="1" fill="none" fill-rule="evenodd" opacity="0.200000003">
        <g id="article-portrait" fill="#FFFFFF">
            <g id="SVG-Mask" transform="translate(-657.000000, 0.000000)">
                <g id="Masks">
                    <path d="M662.854922,1723 L662.854922,1599.13148 C662.854922,1442.90013 728.69429,1299.31823 860.375,1168.38148 C911.708158,1116.30436 1006.18951,1044.14144 1143.82189,951.890544 C1247.23217,882.702374 1323.85877,824.302483 1373.70402,776.689119 C1462.23511,691.877814 1506.5,604.091991 1506.5,513.329016 C1506.5,435.21334 1485.29749,374.581606 1442.89184,331.431995 C1401.9741,289.770301 1343.20224,268.939767 1266.57448,268.939767 C1099.18375,268.939767 1006.19029,382.01981 987.591321,608.18329 L645,564.661917 C700.052952,188.218757 912.078034,0 1281.08161,0 C1484.18236,0 1636.31966,50.9604144 1737.49806,152.882772 C1830.49291,246.621583 1876.98964,369.372946 1876.98964,521.140544 C1876.98964,695.970866 1794.03947,855.547638 1628.13666,999.875648 C1579.77934,1042.2813 1493.85338,1104.40093 1370.35622,1186.2364 C1258.01844,1262.1202 1188.45933,1312.33666 1161.67681,1336.88731 C1131.91846,1364.41378 1106.62424,1397.89143 1085.79339,1437.32124 L1879.2215,1437.32124 L1879.2215,1723 L662.854922,1723 Z" id="2"></path>
                </g>
            </g>
        </g>
    </g>
</svg>