<?xml version="1.0" encoding="UTF-8"?>
<svg width="1920px" height="1080px" viewBox="0 0 1920 1080" version="1.1" xmlns="http://www.w3.org/2000/svg" xmlns:xlink="http://www.w3.org/1999/xlink">
    <!-- Generator: Sketch 46.2 (44496) - http://www.bohemiancoding.com/sketch -->
    <title>SVG Mask</title>
    <desc>Created with Sketch.</desc>
    <defs></defs>
    <g id="Articleimages" stroke="none" stroke-width="1" fill="none" fill-rule="evenodd" opacity="0.200000003">
        <g id="article-hd" fill="#FFFFFF">
            <g id="SVG-Mask" transform="translate(0.000000, -60.000000)">
                <g id="Masks">
                    <path d="M267.012745,1167.12016 L267.012745,1086.09015 C267.012745,983.889623 311.309297,889.963883 399.903732,804.310109 C434.440546,770.243267 498.00735,723.037066 590.606053,662.690089 C660.180214,617.429856 711.734394,579.226899 745.27014,548.080072 C804.83363,492.599787 834.614928,435.173686 834.614928,375.800048 C834.614928,324.699785 820.349937,285.036842 791.819526,256.810031 C764.290182,229.556557 724.748626,215.930025 673.193672,215.930025 C560.573628,215.930025 498.007876,289.902629 485.494538,437.850056 L255,409.380052 C292.039481,163.125453 434.689397,39.9999995 682.954028,39.9999995 C819.599681,39.9999995 921.957252,73.3363376 990.029812,140.010014 C1052.5965,201.330329 1083.87938,281.629538 1083.87938,380.910048 C1083.87938,495.277303 1028.07073,599.666274 916.451751,694.080093 C883.917072,721.820236 826.106316,762.456502 743.017751,815.99011 C667.437188,865.630366 620.638005,898.480042 602.618798,914.540125 C582.597457,932.546884 565.579572,954.446668 551.564633,980.240134 L1085.38097,980.240134 L1085.38097,1167.12016 L267.012745,1167.12016 Z" id="2"></path>
                </g>
            </g>
        </g>
    </g>
</svg>